# xmcd CD database file
#
# Track frame offsets:
#	150
#	24094
#	40638
#	57388
#	78646
#	98742
#	118091
#	138892
#	150334
#	163471
#	187684
#	206296
#
# Disc length: 3163 seconds
#
# Revision: 0
# Processed by: cddbd v1.5.1PL0 Copyright (c) Steve Scherf et al.
# Submitted via: CDex 1.51
#
DISCID=8c0c590c
DTITLE=薬奏 - 憂うつ解消
DYEAR=2003
DGENRE=Meditative
TTITLE0=白い砂浜
TTITLE1=漂う心
TTITLE2=Shining Waterdrop
TTITLE3=未来からの贈り物
TTITLE4=扉を開いて
TTITLE5=太陽層
TTITLE6=海図
TTITLE7=南南西へ
TTITLE8=Rhythm Of Passion
TTITLE9=浮雲に乗って
TTITLE10=A Large View
TTITLE11=Invigorating
EXTD=YEAR: 2003
EXTT0=
EXTT1=
EXTT2=
EXTT3=
EXTT4=
EXTT5=
EXTT6=
EXTT7=
EXTT8=
EXTT9=
EXTT10=
EXTT11=
PLAYORDER=
